<svg version="1.1" xmlns="http://www.w3.org/2000/svg" xmlns:xlink="http://www.w3.org/1999/xlink" viewBox="0 0 172 172"><g fill="none" fill-rule="nonzero" stroke="none" stroke-width="1" stroke-linecap="butt" stroke-linejoin="miter" stroke-miterlimit="10" stroke-dasharray="" stroke-dashoffset="0" font-family="none" font-weight="none" font-size="none" text-anchor="none" style="mix-blend-mode: normal"><path d="M0,172v-172h172v172z" fill="none"></path><g><path d="M169.34609,86c0,-46.02344 -37.32266,-83.34609 -83.34609,-83.34609c-46.02344,0 -83.34609,37.32266 -83.34609,83.34609c0,46.02344 37.32266,83.34609 83.34609,83.34609c46.02344,0 83.34609,-37.32266 83.34609,-83.34609z" fill="#656565"></path><path d="M49.08047,60.97266c0,-4.66953 1.51172,-9.40625 4.50156,-14.21016c2.98984,-4.80391 7.39063,-8.76797 13.13516,-11.92578c5.74453,-3.15781 12.46328,-4.73672 20.15625,-4.73672c7.12187,0 13.4375,1.31016 18.87969,3.96406c5.47578,2.62031 9.675,6.21484 12.66484,10.75c2.98984,4.53516 4.46797,9.43984 4.46797,14.74766c0,4.19922 -0.83984,7.86094 -2.55312,10.98516c-1.71328,3.15781 -3.72891,5.87891 -6.04687,8.16328c-2.35156,2.28438 -6.51719,6.14766 -12.59766,11.55625c-1.67969,1.51172 -3.02344,2.85547 -4.03125,4.03125c-1.00781,1.14219 -1.74688,2.21719 -2.25078,3.15781c-0.50391,0.97422 -0.87344,1.91484 -1.14219,2.88906c-0.26875,0.97422 -0.67187,2.65391 -1.20938,5.07266c-0.94062,5.10625 -3.86328,7.69297 -8.76797,7.69297c-2.55313,0 -4.70312,-0.83984 -6.45,-2.51953c-1.74687,-1.67969 -2.62031,-4.16563 -2.62031,-7.45781c0,-4.13203 0.63828,-7.72656 1.91484,-10.75c1.27656,-3.02344 2.98984,-5.67734 5.10625,-7.96172c2.11641,-2.28437 4.97187,-5.00547 8.56641,-8.16328c3.15781,-2.75469 5.40859,-4.8375 6.81953,-6.24844c1.41094,-1.41094 2.58672,-2.95625 3.52734,-4.70312c0.97422,-1.71328 1.44453,-3.59453 1.44453,-5.61016c0,-3.93047 -1.47812,-7.25625 -4.40078,-9.97734c-2.92266,-2.72109 -6.71875,-4.06484 -11.32109,-4.06484c-5.40859,0 -9.40625,1.37734 -11.95938,4.09844c-2.55312,2.72109 -4.73672,6.75234 -6.48359,12.06016c-1.67969,5.57656 -4.8375,8.33125 -9.50703,8.33125c-2.75469,0 -5.07266,-0.97422 -6.9875,-2.92266c-1.88125,-1.88125 -2.85547,-3.96406 -2.85547,-6.24844zM85.12656,141.86641c-2.98984,0 -5.61016,-0.97422 -7.86094,-2.92266c-2.25078,-1.94844 -3.35937,-4.66953 -3.35937,-8.16328c0,-3.09063 1.075,-5.71094 3.25859,-7.82734c2.15,-2.11641 4.8375,-3.15781 7.96172,-3.15781c3.09063,0 5.71094,1.075 7.82734,3.15781c2.11641,2.11641 3.15781,4.73672 3.15781,7.82734c0,3.46016 -1.10859,6.14766 -3.32578,8.12969c-2.21719,1.98203 -4.77031,2.95625 -7.65937,2.95625z" fill="#cccccc"></path></g></g></svg>